<?xml version="1.0" standalone="no"?>
<!DOCTYPE svg PUBLIC "-//W3C//DTD SVG 20010904//EN"
 "http://www.w3.org/TR/2001/REC-SVG-20010904/DTD/svg10.dtd">
<svg version="1.0" xmlns="http://www.w3.org/2000/svg"
 width="539.000000pt" height="539.000000pt" viewBox="0 0 539.000000 539.000000"
 preserveAspectRatio="xMidYMid meet">
<metadata>
Created by potrace 1.11, written by Peter Selinger 2001-2013
</metadata>
<g transform="translate(0.000000,539.000000) scale(0.100000,-0.100000)"
fill="#000000" stroke="none">
<path d="M2218 5377 c-7 -7 -40 -34 -73 -61 -71 -57 -178 -156 -169 -156 4 0
-6 -10 -21 -22 -15 -12 -37 -31 -50 -42 -12 -12 -64 -59 -115 -106 -244 -221
-316 -318 -415 -565 -15 -38 -33 -83 -40 -100 -7 -16 -20 -55 -30 -85 -9 -30
-19 -62 -23 -70 -7 -18 -10 -32 -16 -85 -2 -22 -9 -41 -15 -43 -6 -2 -11 -9
-11 -16 0 -10 -41 -32 -75 -41 -121 -31 -295 -109 -365 -165 -21 -17 -44 -30
-51 -30 -7 0 -10 -2 -7 -5 2 -3 -23 -33 -56 -67 -63 -65 -101 -109 -102 -118
-1 -9 -59 -95 -66 -98 -5 -2 -8 -10 -8 -18 0 -8 -3 -14 -8 -14 -4 0 -13 -12
-19 -27 -7 -16 -27 -44 -44 -63 -44 -48 -124 -150 -138 -177 -15 -29 -15 -103
1 -103 6 0 8 -3 5 -6 -4 -4 4 -21 16 -38 12 -17 21 -33 21 -36 -2 -6 3 -21 13
-47 3 -10 7 -21 7 -25 1 -3 4 -10 9 -14 4 -4 7 -16 7 -26 0 -10 5 -18 12 -18
6 0 8 -3 5 -6 -9 -9 71 -87 113 -110 19 -10 43 -26 54 -34 10 -8 20 -14 22
-12 8 5 69 -31 111 -65 35 -29 60 -68 69 -108 1 -5 3 -12 4 -15 5 -9 10 -55
12 -107 2 -29 7 -53 11 -53 5 0 5 -6 1 -12 -11 -18 -12 -48 -2 -48 5 0 6 -6 1
-12 -4 -7 -8 -32 -9 -56 -1 -23 -4 -45 -7 -48 -3 -3 -2 -18 3 -33 4 -16 4 -34
-1 -42 -4 -8 -3 -19 3 -26 6 -7 7 -13 2 -13 -5 0 -9 -16 -9 -35 0 -19 3 -35 6
-35 3 0 6 -15 7 -32 1 -49 5 -68 12 -68 3 0 17 -24 30 -52 44 -102 84 -178 92
-178 4 0 8 -9 8 -20 0 -11 4 -20 8 -20 4 0 16 -15 27 -32 56 -97 260 -325 360
-403 21 -16 47 -38 57 -47 10 -10 20 -17 22 -15 3 1 16 -8 30 -20 31 -27 35
-50 40 -228 2 -77 5 -140 6 -140 1 0 3 -11 5 -25 8 -75 24 -241 29 -314 3 -30
-21 -69 -36 -60 -4 3 -8 1 -8 -4 0 -5 -6 -9 -12 -10 -45 -4 -149 -43 -170 -63
-30 -30 -48 -82 -44 -131 2 -22 -2 -38 -8 -38 -6 0 -5 -5 2 -12 7 -7 12 -20
12 -30 0 -10 5 -18 12 -18 6 0 8 -3 5 -6 -3 -4 6 -16 21 -28 23 -18 43 -21
151 -25 278 -8 401 49 485 223 44 91 77 176 70 176 -4 0 -1 6 5 13 6 8 8 17 4
20 -3 4 -2 7 3 7 8 0 29 61 40 115 11 55 35 130 44 133 5 2 7 8 4 13 -6 10 47
1 56 -10 7 -8 85 -44 86 -40 0 2 9 -3 18 -10 18 -15 81 -40 171 -68 28 -8 59
-19 70 -24 11 -4 66 -22 122 -39 121 -37 144 -55 81 -64 -24 -3 -77 -6 -118
-6 -132 -1 -294 -26 -370 -57 -8 -3 -21 -7 -28 -9 -34 -7 -102 -48 -107 -65
-4 -10 -10 -19 -14 -19 -6 0 -32 -43 -36 -60 0 -3 -9 -20 -18 -37 -10 -18 -14
-33 -10 -33 5 0 3 -4 -4 -8 -6 -4 -14 -25 -16 -48 -5 -40 7 -67 31 -72 36 -7
391 -13 912 -15 592 -2 698 0 736 14 11 4 34 10 50 12 52 9 147 37 262 76 62
21 128 37 145 36 18 -1 78 -23 134 -48 56 -26 109 -47 117 -47 8 0 17 -4 20
-8 13 -21 158 -44 249 -40 78 4 104 10 172 39 45 20 91 44 104 55 49 40 96 89
94 96 -2 5 2 8 7 8 6 0 10 7 10 15 0 8 4 15 10 15 5 0 12 11 16 25 3 14 9 25
13 25 29 0 44 256 15 267 -8 3 -14 11 -14 17 0 22 -93 106 -147 132 -29 14
-58 33 -65 41 -13 16 -19 63 -8 63 5 0 10 27 13 68 0 6 3 12 7 12 3 0 7 8 8
17 4 34 8 52 14 59 4 3 4 12 1 20 -3 8 0 14 7 14 6 0 9 4 6 9 -3 5 -1 34 5 66
6 31 11 67 11 79 1 11 5 26 10 33 5 6 5 14 -1 17 -6 4 -7 16 -2 29 11 30 11
376 -1 383 -5 3 -4 12 3 20 6 8 7 14 2 14 -5 0 -9 8 -10 18 -4 41 -11 107 -13
107 -2 0 -10 36 -12 58 -1 9 -6 17 -10 17 -4 0 -7 3 -6 8 3 14 -14 82 -21 82
-4 0 -8 12 -9 26 -1 15 -6 32 -11 38 -5 6 -9 13 -9 16 -1 3 -6 19 -13 35 -7
17 -13 32 -14 35 -6 24 -69 140 -76 140 -5 0 -9 9 -9 20 0 11 -4 20 -10 20 -5
0 -10 5 -10 10 0 12 -41 73 -52 78 -5 2 -8 10 -8 18 0 8 -4 14 -10 14 -5 0
-10 7 -10 16 0 8 -4 13 -9 9 -5 -3 -12 3 -15 12 -3 10 -32 46 -63 80 -32 34
-65 70 -74 80 -9 10 -44 43 -79 73 -35 30 -75 65 -89 78 -14 13 -39 33 -54 45
-16 12 -41 31 -55 43 -127 97 -372 220 -477 238 -195 34 -458 38 -635 11 -19
-3 -53 -8 -75 -10 -45 -4 -51 -6 -220 -40 -162 -34 -161 -34 -230 -41 -118
-13 -186 -7 -278 24 -53 19 -85 57 -89 108 -1 13 -5 24 -8 24 -5 0 -10 37 -13
88 0 6 -4 12 -9 12 -5 0 -4 9 2 19 6 12 6 22 1 26 -10 6 -12 35 -5 73 3 13 9
20 14 17 6 -3 10 -1 10 5 0 6 16 10 38 10 20 -1 48 1 62 4 26 6 78 14 144 21
21 2 46 7 55 9 9 3 41 8 71 11 94 11 339 64 465 101 132 39 312 110 333 131 8
7 18 11 23 8 5 -4 9 -2 9 3 0 5 10 14 23 19 34 16 147 112 147 125 0 6 7 16
15 22 9 6 17 26 19 44 5 36 14 33 -114 37 -47 1 -113 5 -146 9 -34 4 -79 9
-100 11 -53 5 -133 15 -164 20 -46 7 -105 16 -135 20 -16 2 -43 7 -60 10 -93
17 -184 23 -295 20 -69 -1 -132 -5 -140 -7 -8 -2 -42 -13 -75 -23 -33 -10 -62
-19 -65 -20 -18 -3 -107 -40 -114 -47 -6 -4 -18 -8 -27 -8 -10 0 -19 -4 -21
-9 -7 -18 -164 -77 -200 -75 -42 2 -108 45 -116 76 -2 10 -8 18 -13 18 -18 0
0 35 38 75 6 6 34 46 61 88 27 42 57 84 66 92 9 9 14 21 11 26 -4 5 -2 9 2 9
10 0 49 62 45 73 -1 4 2 7 7 7 5 0 20 20 32 45 12 25 26 45 30 45 3 0 12 14
19 30 7 17 16 30 21 30 5 0 9 9 9 20 0 11 4 20 8 20 7 0 70 125 77 153 2 4 4
9 5 12 1 3 3 10 4 15 0 6 6 14 11 18 6 4 10 12 11 17 2 27 18 76 25 81 5 3 9
15 9 28 0 12 3 26 7 30 4 3 8 14 10 24 1 9 10 51 18 92 9 41 16 82 15 90 0 8
0 24 0 35 2 32 1 38 -3 68 -2 15 0 27 5 27 5 0 6 6 1 13 -4 6 -8 21 -8 32 -1
11 -5 39 -9 62 -4 24 -7 45 -6 48 0 3 -7 19 -17 35 -18 32 -43 38 -65 17z"/>
</g>
</svg>
